<svg width="82" height="23" viewBox="0 0 82 23" fill="none" xmlns="http://www.w3.org/2000/svg">
<mask id="mask0_19_1300" style="mask-type:alpha" maskUnits="userSpaceOnUse" x="0" y="1" width="21" height="21">
<rect x="0.103516" y="1.32031" width="20.1838" height="20.1838" rx="5.95162" fill="#F8FFB5"/>
</mask>
<g mask="url(#mask0_19_1300)">
<rect x="0.103516" y="1.32031" width="20.1838" height="20.1838" rx="5.95162" fill="#C3AAFF"/>
</g>
<circle cx="7.47777" cy="10.7654" r="2.97581" stroke="black" stroke-width="1.81136"/>
<circle cx="12.9114" cy="11.0237" r="4.01088" stroke="#C3AAFF" stroke-width="2.07013"/>
<circle cx="12.9114" cy="11.0237" r="2.97581" fill="#C3AAFF" stroke="black" stroke-width="1.81136"/>
<path d="M8.90234 10.8945V18.14" stroke="#C3AAFF" stroke-width="2.07013"/>
<path d="M9.94728 10.8374L9.94727 16.8269" stroke="black" stroke-width="1.81136"/>
<path d="M25.3297 11.0613C25.3297 10.2044 25.5151 9.44228 25.8859 8.7749C26.2566 8.09928 26.7716 7.57609 27.4307 7.20532C28.0981 6.82631 28.852 6.63681 29.6924 6.63681C30.7223 6.63681 31.6039 6.90871 32.3372 7.4525C33.0705 7.99629 33.5607 8.73782 33.8079 9.6771H31.4844C31.3114 9.31457 31.0642 9.03855 30.7429 8.84905C30.4298 8.65955 30.0714 8.5648 29.6677 8.5648C29.0168 8.5648 28.4895 8.79138 28.0858 9.24454C27.682 9.6977 27.4802 10.3033 27.4802 11.0613C27.4802 11.8193 27.682 12.4249 28.0858 12.878C28.4895 13.3312 29.0168 13.5578 29.6677 13.5578C30.0714 13.5578 30.4298 13.463 30.7429 13.2735C31.0642 13.084 31.3114 12.808 31.4844 12.4455H33.8079C33.5607 13.3848 33.0705 14.1263 32.3372 14.6701C31.6039 15.2056 30.7223 15.4734 29.6924 15.4734C28.852 15.4734 28.0981 15.288 27.4307 14.9173C26.7716 14.5383 26.2566 14.0151 25.8859 13.3477C25.5151 12.6803 25.3297 11.9182 25.3297 11.0613ZM38.2413 15.5105C37.5657 15.5105 36.956 15.3663 36.4122 15.0779C35.8766 14.7896 35.4523 14.3776 35.1392 13.842C34.8343 13.3065 34.6819 12.6803 34.6819 11.9635C34.6819 11.2549 34.8385 10.6329 35.1516 10.0973C35.4646 9.55351 35.8931 9.13743 36.4369 8.84905C36.9807 8.56068 37.5904 8.41649 38.266 8.41649C38.9416 8.41649 39.5513 8.56068 40.0951 8.84905C40.6389 9.13743 41.0673 9.55351 41.3804 10.0973C41.6935 10.6329 41.8501 11.2549 41.8501 11.9635C41.8501 12.6721 41.6894 13.2983 41.3681 13.842C41.055 14.3776 40.6224 14.7896 40.0704 15.0779C39.5266 15.3663 38.9169 15.5105 38.2413 15.5105ZM38.2413 13.6814C38.645 13.6814 38.9869 13.5331 39.2671 13.2365C39.5554 12.9398 39.6996 12.5155 39.6996 11.9635C39.6996 11.4115 39.5596 10.9871 39.2794 10.6905C39.0075 10.3939 38.6697 10.2456 38.266 10.2456C37.854 10.2456 37.5121 10.3939 37.2402 10.6905C36.9683 10.9789 36.8324 11.4032 36.8324 11.9635C36.8324 12.5155 36.9642 12.9398 37.2279 13.2365C37.4997 13.5331 37.8376 13.6814 38.2413 13.6814ZM44.0341 7.79855C43.6634 7.79855 43.3585 7.69144 43.1196 7.47722C42.8889 7.25476 42.7735 6.98286 42.7735 6.66153C42.7735 6.33196 42.8889 6.06006 43.1196 5.84584C43.3585 5.62338 43.6634 5.51215 44.0341 5.51215C44.3966 5.51215 44.6933 5.62338 44.924 5.84584C45.1629 6.06006 45.2824 6.33196 45.2824 6.66153C45.2824 6.98286 45.1629 7.25476 44.924 7.47722C44.6933 7.69144 44.3966 7.79855 44.0341 7.79855ZM45.0846 8.51536V15.4116H42.9713V8.51536H45.0846ZM50.8182 8.44121C51.6256 8.44121 52.2683 8.70487 52.7462 9.23218C53.2323 9.75125 53.4753 10.4681 53.4753 11.3826V15.4116H51.3743V11.6669C51.3743 11.2055 51.2549 10.8471 51.0159 10.5917C50.777 10.3362 50.4557 10.2085 50.0519 10.2085C49.6482 10.2085 49.3269 10.3362 49.0879 10.5917C48.849 10.8471 48.7295 11.2055 48.7295 11.6669V15.4116H46.6162V8.51536H48.7295V9.42992C48.9438 9.12507 49.2321 8.88613 49.5947 8.7131C49.9572 8.53184 50.365 8.44121 50.8182 8.44121ZM61.5559 9.52879C61.5559 10.0314 61.4406 10.4928 61.2099 10.913C60.9792 11.3249 60.6249 11.6586 60.147 11.9141C59.6691 12.1695 59.0759 12.2972 58.3673 12.2972H57.0573V15.4116H54.9439V6.73568H58.3673C59.0594 6.73568 59.6444 6.85515 60.1223 7.09409C60.6002 7.33303 60.9586 7.6626 61.1975 8.0828C61.4365 8.503 61.5559 8.985 61.5559 9.52879ZM58.2067 10.6164C58.6104 10.6164 58.9111 10.5216 59.1089 10.3321C59.3066 10.1426 59.4055 9.87484 59.4055 9.52879C59.4055 9.18274 59.3066 8.91497 59.1089 8.72546C58.9111 8.53596 58.6104 8.44121 58.2067 8.44121H57.0573V10.6164H58.2067ZM63.719 7.79855C63.3483 7.79855 63.0434 7.69144 62.8045 7.47722C62.5738 7.25476 62.4584 6.98286 62.4584 6.66153C62.4584 6.33196 62.5738 6.06006 62.8045 5.84584C63.0434 5.62338 63.3483 5.51215 63.719 5.51215C64.0816 5.51215 64.3782 5.62338 64.6089 5.84584C64.8478 6.06006 64.9673 6.33196 64.9673 6.66153C64.9673 6.98286 64.8478 7.25476 64.6089 7.47722C64.3782 7.69144 64.0816 7.79855 63.719 7.79855ZM64.7695 8.51536V15.4116H62.6562V8.51536H64.7695ZM68.4144 9.49171C68.6204 9.17038 68.9047 8.91085 69.2672 8.7131C69.6297 8.51536 70.054 8.41649 70.5402 8.41649C71.1087 8.41649 71.6236 8.56068 72.085 8.84905C72.5464 9.13743 72.909 9.54939 73.1726 10.0849C73.4445 10.6205 73.5805 11.2426 73.5805 11.9511C73.5805 12.6597 73.4445 13.2859 73.1726 13.8297C72.909 14.3652 72.5464 14.7813 72.085 15.0779C71.6236 15.3663 71.1087 15.5105 70.5402 15.5105C70.0623 15.5105 69.638 15.4116 69.2672 15.2139C68.9047 15.0161 68.6204 14.7607 68.4144 14.4476V18.6991H66.3011V8.51536H68.4144V9.49171ZM71.43 11.9511C71.43 11.4238 71.2817 11.0119 70.9851 10.7152C70.6967 10.4104 70.3383 10.258 69.9099 10.258C69.4897 10.258 69.1313 10.4104 68.8346 10.7152C68.5463 11.0201 68.4021 11.4362 68.4021 11.9635C68.4021 12.4908 68.5463 12.9069 68.8346 13.2117C69.1313 13.5166 69.4897 13.669 69.9099 13.669C70.3301 13.669 70.6885 13.5166 70.9851 13.2117C71.2817 12.8986 71.43 12.4784 71.43 11.9511ZM81.19 11.8523C81.19 12.05 81.1776 12.256 81.1529 12.4702H76.37C76.4029 12.8986 76.5389 13.2282 76.7778 13.4589C77.025 13.6814 77.3257 13.7926 77.68 13.7926C78.2073 13.7926 78.574 13.5701 78.78 13.1252H81.0293C80.9139 13.5784 80.7038 13.9862 80.399 14.3488C80.1024 14.7113 79.7275 14.9955 79.2743 15.2015C78.8212 15.4075 78.3145 15.5105 77.7542 15.5105C77.0786 15.5105 76.4771 15.3663 75.9498 15.0779C75.4225 14.7896 75.0105 14.3776 74.7139 13.842C74.4173 13.3065 74.269 12.6803 74.269 11.9635C74.269 11.2467 74.4132 10.6205 74.7015 10.0849C74.9982 9.54939 75.4101 9.13743 75.9374 8.84905C76.4647 8.56068 77.0703 8.41649 77.7542 8.41649C78.4216 8.41649 79.0148 8.55656 79.5339 8.83669C80.0529 9.11683 80.4567 9.51643 80.745 10.0355C81.0416 10.5546 81.19 11.1602 81.19 11.8523ZM79.0271 11.2961C79.0271 10.9336 78.9036 10.6452 78.6564 10.431C78.4092 10.2168 78.1002 10.1097 77.7295 10.1097C77.3752 10.1097 77.0744 10.2126 76.8273 10.4186C76.5883 10.6246 76.44 10.9171 76.3823 11.2961H79.0271Z" fill="#1E1E1E"/>
</svg>
