<svg width="222" height="36" viewBox="0 0 222 36" fill="none" xmlns="http://www.w3.org/2000/svg">
    <path d="M31.9404 10.4038C28.7162 9.09007 24.6952 10.5385 22.1154 12.526C21.3189 13.1322 21.2431 14.2103 21.9258 14.9177C22.6086 15.6251 23.8225 15.6924 24.6192 15.0861C26.516 13.604 28.9814 12.9302 30.385 13.4693C32.0162 14.1092 32.2439 16.5684 32.2439 17.9493C32.2439 19.3305 32.0165 21.7894 30.385 22.4294C28.9814 23.0359 26.5155 22.3621 24.6192 20.8801L13.9219 12.5593C11.3425 10.5719 7.32156 9.12344 4.09691 10.4371C2.23806 11.1784 0 13.0984 0 17.9825C0 22.8666 2.23806 24.787 4.09691 25.5614C7.32125 26.8751 11.3422 25.4266 13.9219 23.4391C14.7185 22.8329 14.7943 21.7548 14.1115 21.0474C13.4288 20.34 12.2148 20.2727 11.4182 20.879C9.52143 22.361 7.05588 23.0348 5.65231 22.4957C4.02124 21.8559 3.79344 19.3967 3.79344 18.0158C3.79344 16.6346 4.02091 14.1757 5.65231 13.5358C7.01808 12.9631 9.5215 13.6706 11.3804 15.1526L22.0777 23.4726C23.9744 24.9546 26.6295 26.0999 29.2093 26.0999C30.1198 26.0999 31.0299 25.9652 31.9027 25.5944C33.7614 24.8535 35.9995 22.8997 35.9995 18.0157C36.0371 13.098 33.7993 11.1784 31.9404 10.4038Z" fill="#081B27" />
    <path d="M46.0085 28V7.63636H53.6449C55.2093 7.63636 56.5218 7.92803 57.5824 8.51136C58.6496 9.0947 59.455 9.89678 59.9986 10.9176C60.5488 11.9318 60.8239 13.0852 60.8239 14.3778C60.8239 15.6837 60.5488 16.8437 59.9986 17.858C59.4484 18.8722 58.6364 19.6709 57.5625 20.2543C56.4886 20.831 55.1662 21.1193 53.5952 21.1193H48.5341V18.0866H53.098C54.0128 18.0866 54.7618 17.9276 55.3452 17.6094C55.9285 17.2912 56.3594 16.8537 56.6378 16.2969C56.9228 15.7401 57.0653 15.1004 57.0653 14.3778C57.0653 13.6553 56.9228 13.0189 56.6378 12.4688C56.3594 11.9186 55.9252 11.491 55.3352 11.1861C54.7519 10.8745 53.9995 10.7188 53.0781 10.7188H49.6974V28H46.0085ZM67.9904 28.3082C67.0226 28.3082 66.1509 28.1359 65.3754 27.7912C64.6064 27.4399 63.9966 26.9228 63.5458 26.2401C63.1017 25.5573 62.8796 24.7154 62.8796 23.7145C62.8796 22.8527 63.0387 22.1402 63.3569 21.5767C63.6751 21.0133 64.1093 20.5625 64.6594 20.2244C65.2096 19.8864 65.8294 19.6312 66.5188 19.4588C67.2148 19.2798 67.9341 19.1506 68.6765 19.071C69.5714 18.9782 70.2972 18.8954 70.854 18.8224C71.4109 18.7429 71.8152 18.6236 72.0671 18.4645C72.3256 18.2988 72.4549 18.0436 72.4549 17.6989V17.6392C72.4549 16.8902 72.2328 16.3101 71.7887 15.8991C71.3446 15.4882 70.7049 15.2827 69.8697 15.2827C68.988 15.2827 68.2887 15.4749 67.7717 15.8594C67.2612 16.2438 66.9165 16.6979 66.7376 17.2216L63.3768 16.7443C63.6419 15.8163 64.0794 15.0407 64.6893 14.4176C65.2991 13.7879 66.0449 13.3172 66.9265 13.0057C67.8081 12.6875 68.7826 12.5284 69.8498 12.5284C70.5856 12.5284 71.3181 12.6146 72.0472 12.7869C72.7764 12.9593 73.4426 13.2443 74.0458 13.642C74.649 14.0331 75.1329 14.5668 75.4975 15.2429C75.8687 15.919 76.0543 16.7642 76.0543 17.7784V28H72.5941V25.902H72.4748C72.256 26.3262 71.9478 26.724 71.5501 27.0952C71.159 27.4598 70.6651 27.7547 70.0685 27.9801C69.4786 28.1989 68.7859 28.3082 67.9904 28.3082ZM68.9251 25.6634C69.6476 25.6634 70.274 25.5208 70.8043 25.2358C71.3346 24.9441 71.7423 24.5597 72.0273 24.0824C72.319 23.6051 72.4648 23.0848 72.4648 22.5213V20.7216C72.3522 20.8144 72.1599 20.9006 71.8881 20.9801C71.623 21.0597 71.3247 21.1293 70.9933 21.1889C70.6618 21.2486 70.3337 21.3016 70.0089 21.348C69.6841 21.3944 69.4023 21.4342 69.1637 21.4673C68.6268 21.5402 68.1462 21.6596 67.7219 21.8253C67.2977 21.991 66.963 22.223 66.7177 22.5213C66.4724 22.813 66.3498 23.1908 66.3498 23.6548C66.3498 24.3177 66.5917 24.8182 67.0756 25.1562C67.5595 25.4943 68.176 25.6634 68.9251 25.6634ZM81.364 33.7273C80.8735 33.7273 80.4194 33.6875 80.0018 33.608C79.5908 33.535 79.2627 33.4489 79.0174 33.3494L79.8526 30.5455C80.3763 30.6979 80.8436 30.7708 81.2546 30.7642C81.6656 30.7576 82.0269 30.6283 82.3384 30.3764C82.6566 30.1312 82.9251 29.7202 83.1438 29.1435L83.4521 28.3182L77.9137 12.7273H81.7319L85.2518 24.2614H85.4109L88.9407 12.7273H92.7688L86.6538 29.8494C86.3687 30.6581 85.9909 31.3509 85.5202 31.9276C85.0496 32.5109 84.4729 32.955 83.7901 33.2599C83.114 33.5715 82.3053 33.7273 81.364 33.7273ZM99.7042 28L93.957 7.63636H97.9244L101.593 22.6009H101.782L105.7 7.63636H109.309L113.237 22.6108H113.416L117.085 7.63636H121.052L115.305 28H111.666L107.589 13.7116H107.43L103.343 28H99.7042ZM123.451 28V12.7273H127.05V28H123.451ZM125.261 10.5597C124.691 10.5597 124.2 10.3707 123.789 9.9929C123.378 9.60843 123.173 9.14773 123.173 8.61079C123.173 8.06723 123.378 7.60653 123.789 7.22869C124.2 6.84422 124.691 6.65199 125.261 6.65199C125.837 6.65199 126.328 6.84422 126.732 7.22869C127.143 7.60653 127.349 8.06723 127.349 8.61079C127.349 9.14773 127.143 9.60843 126.732 9.9929C126.328 10.3707 125.837 10.5597 125.261 10.5597ZM138.378 12.7273V15.5114H129.598V12.7273H138.378ZM131.766 9.06818H135.365V23.4062C135.365 23.8902 135.438 24.2614 135.584 24.5199C135.737 24.7718 135.935 24.9441 136.181 25.0369C136.426 25.1297 136.698 25.1761 136.996 25.1761C137.221 25.1761 137.427 25.1596 137.613 25.1264C137.805 25.0933 137.951 25.0634 138.05 25.0369L138.657 27.8509C138.464 27.9171 138.189 27.9901 137.831 28.0696C137.48 28.1491 137.049 28.1955 136.539 28.2088C135.637 28.2353 134.825 28.0994 134.103 27.8011C133.38 27.4962 132.807 27.0256 132.382 26.3892C131.965 25.7528 131.759 24.9574 131.766 24.0028V9.06818ZM145.316 19.0511V28H141.717V7.63636H145.237V15.3224H145.415C145.773 14.4607 146.327 13.7812 147.076 13.2841C147.832 12.7803 148.793 12.5284 149.96 12.5284C151.02 12.5284 151.945 12.7505 152.734 13.1946C153.522 13.6387 154.132 14.2884 154.563 15.1435C155.001 15.9986 155.219 17.0426 155.219 18.2756V28H151.62V18.8324C151.62 17.8049 151.355 17.0062 150.825 16.4361C150.301 15.8594 149.565 15.571 148.617 15.571C147.981 15.571 147.411 15.7102 146.907 15.9886C146.41 16.2604 146.019 16.6548 145.734 17.1719C145.455 17.6889 145.316 18.3153 145.316 19.0511ZM175.782 7.63636V28H172.501L162.906 14.1293H162.737V28H159.048V7.63636H162.349L171.934 21.517H172.113V7.63636H175.782ZM186.404 28.2983C184.873 28.2983 183.55 27.9801 182.436 27.3438C181.329 26.7008 180.478 25.7926 179.881 24.6193C179.284 23.4394 178.986 22.0507 178.986 20.4531C178.986 18.8821 179.284 17.5033 179.881 16.3168C180.484 15.1236 181.326 14.1955 182.407 13.5327C183.487 12.8632 184.757 12.5284 186.215 12.5284C187.156 12.5284 188.044 12.6809 188.88 12.9858C189.721 13.2841 190.464 13.7481 191.107 14.3778C191.757 15.0076 192.267 15.8097 192.638 16.7841C193.009 17.7519 193.195 18.9053 193.195 20.2443V21.348H180.676V18.9219H189.745C189.738 18.2325 189.589 17.6193 189.297 17.0824C189.006 16.5388 188.598 16.1113 188.074 15.7997C187.557 15.4882 186.954 15.3324 186.265 15.3324C185.529 15.3324 184.882 15.5114 184.326 15.8693C183.769 16.2206 183.335 16.6847 183.023 17.2614C182.718 17.8314 182.562 18.4579 182.556 19.1406V21.2585C182.556 22.1468 182.718 22.9091 183.043 23.5455C183.368 24.1752 183.822 24.6591 184.405 24.9972C184.989 25.3286 185.671 25.4943 186.453 25.4943C186.977 25.4943 187.451 25.4214 187.875 25.2756C188.3 25.1231 188.667 24.901 188.979 24.6094C189.291 24.3177 189.526 23.9564 189.685 23.5256L193.046 23.9034C192.834 24.7917 192.429 25.5672 191.833 26.2301C191.243 26.8864 190.487 27.3968 189.566 27.7614C188.644 28.1193 187.59 28.2983 186.404 28.2983ZM200.635 28.3082C199.667 28.3082 198.795 28.1359 198.02 27.7912C197.251 27.4399 196.641 26.9228 196.19 26.2401C195.746 25.5573 195.524 24.7154 195.524 23.7145C195.524 22.8527 195.683 22.1402 196.001 21.5767C196.32 21.0133 196.754 20.5625 197.304 20.2244C197.854 19.8864 198.474 19.6312 199.163 19.4588C199.859 19.2798 200.579 19.1506 201.321 19.071C202.216 18.9782 202.942 18.8954 203.499 18.8224C204.055 18.7429 204.46 18.6236 204.712 18.4645C204.97 18.2988 205.099 18.0436 205.099 17.6989V17.6392C205.099 16.8902 204.877 16.3101 204.433 15.8991C203.989 15.4882 203.349 15.2827 202.514 15.2827C201.633 15.2827 200.933 15.4749 200.416 15.8594C199.906 16.2438 199.561 16.6979 199.382 17.2216L196.021 16.7443C196.286 15.8163 196.724 15.0407 197.334 14.4176C197.944 13.7879 198.689 13.3172 199.571 13.0057C200.453 12.6875 201.427 12.5284 202.494 12.5284C203.23 12.5284 203.963 12.6146 204.692 12.7869C205.421 12.9593 206.087 13.2443 206.69 13.642C207.294 14.0331 207.777 14.5668 208.142 15.2429C208.513 15.919 208.699 16.7642 208.699 17.7784V28H205.239V25.902H205.119C204.901 26.3262 204.592 26.724 204.195 27.0952C203.804 27.4598 203.31 27.7547 202.713 27.9801C202.123 28.1989 201.43 28.3082 200.635 28.3082ZM201.57 25.6634C202.292 25.6634 202.919 25.5208 203.449 25.2358C203.979 24.9441 204.387 24.5597 204.672 24.0824C204.964 23.6051 205.109 23.0848 205.109 22.5213V20.7216C204.997 20.8144 204.804 20.9006 204.533 20.9801C204.268 21.0597 203.969 21.1293 203.638 21.1889C203.306 21.2486 202.978 21.3016 202.653 21.348C202.329 21.3944 202.047 21.4342 201.808 21.4673C201.271 21.5402 200.791 21.6596 200.366 21.8253C199.942 21.991 199.607 22.223 199.362 22.5213C199.117 22.813 198.994 23.1908 198.994 23.6548C198.994 24.3177 199.236 24.8182 199.72 25.1562C200.204 25.4943 200.821 25.6634 201.57 25.6634ZM212.318 28V12.7273H215.808V15.2727H215.967C216.246 14.3911 216.723 13.7116 217.399 13.2344C218.082 12.7505 218.861 12.5085 219.736 12.5085C219.935 12.5085 220.157 12.5185 220.402 12.5384C220.654 12.5516 220.863 12.5748 221.028 12.608V15.919C220.876 15.866 220.634 15.8196 220.303 15.7798C219.978 15.7334 219.663 15.7102 219.358 15.7102C218.702 15.7102 218.112 15.8527 217.588 16.1378C217.071 16.4162 216.663 16.804 216.365 17.3011C216.067 17.7983 215.918 18.3717 215.918 19.0213V28H212.318Z" fill="#081B27" />
</svg>
