<svg width="24" height="24" viewBox="0 0 14 15" fill="none" xmlns="http://www.w3.org/2000/svg">
    <path d="M1.54347 6.35797C1.09878 5.85199 1.18346 5.07381 1.72659 4.67523L5.68148 1.77283C6.49106 1.17869 7.59298 1.17929 8.40191 1.77431L12.3421 4.67257C12.8804 5.06852 12.968 5.83854 12.5324 6.34518L12.2625 6.65908C11.994 6.97137 11.8463 7.36951 11.8463 7.78129V10.5841C11.8463 11.8519 10.8181 12.8797 9.54968 12.8797H4.5348C3.2664 12.8797 2.23815 11.8519 2.23815 10.5841V7.79724C2.23815 7.37904 2.08587 6.97513 1.80974 6.66094L1.54347 6.35797Z" fill="#C3AAFF" />
    <path d="M5.87891 10.5693H8.18932" stroke="#1E1E1E" stroke-width="0.866406" stroke-linecap="round" />
</svg>
