<svg width="24" height="24" viewBox="0 0 14 15" fill="none" xmlns="http://www.w3.org/2000/svg">
    <path d="M1.25781 3.98376C1.25781 2.70775 2.29222 1.67334 3.56823 1.67334H10.4995C11.7755 1.67334 12.8099 2.70775 12.8099 3.98376V10.915C12.8099 12.191 11.7755 13.2254 10.4995 13.2254H3.56823C2.29222 13.2254 1.25781 12.191 1.25781 10.915V3.98376Z" fill="#FDFF82" />
    <path fill-rule="evenodd" clip-rule="evenodd" d="M5.87786 4.99434C5.47911 4.99434 5.15586 5.31759 5.15586 5.71634V6.29395C5.15586 7.1712 4.4447 7.88236 3.56745 7.88236H2.98984C2.75059 7.88236 2.55664 7.68841 2.55664 7.44915C2.55664 7.2099 2.75059 7.01595 2.98984 7.01595H3.56745C3.9662 7.01595 4.28945 6.6927 4.28945 6.29395V5.71634C4.28945 4.83909 5.00061 4.12793 5.87786 4.12793C6.75512 4.12793 7.46628 4.83909 7.46628 5.71634V9.18197C7.46628 9.58072 7.78953 9.90397 8.18828 9.90397C8.58703 9.90397 8.91029 9.58072 8.91029 9.18197V8.60436C8.91029 7.72711 9.62144 7.01595 10.4987 7.01595H11.0763C11.3156 7.01595 11.5095 7.2099 11.5095 7.44915C11.5095 7.68841 11.3156 7.88236 11.0763 7.88236H10.4987C10.0999 7.88236 9.77669 8.20561 9.77669 8.60436V9.18197C9.77669 10.0592 9.06554 10.7704 8.18828 10.7704C7.31103 10.7704 6.59987 10.0592 6.59987 9.18197V5.71634C6.59987 5.31759 6.27662 4.99434 5.87786 4.99434Z" fill="#1E1E1E" />
</svg>
