<svg width="24" height="24" viewBox="0 0 14 15" fill="none" xmlns="http://www.w3.org/2000/svg">
    <g clip-path="url(#clip0_19_1328)">
        <path d="M12.8105 4.38854C12.8105 3.11253 11.7761 2.07812 10.5001 2.07812H3.56888C2.29287 2.07812 1.25846 3.11253 1.25846 4.38854V10.1646C1.25846 11.4406 2.29287 12.475 3.56888 12.475H10.5001C11.7761 12.475 12.8105 11.4406 12.8105 10.1646V4.38854Z" fill="#DBF2FF" />
        <path d="M4.72266 7.27627C4.72266 6.31926 3.94685 5.54346 2.98984 5.54346H1.25703V9.00908H2.98984C3.94685 9.00908 4.72266 8.23328 4.72266 7.27627Z" fill="#1E1E1E" />
        <path fill-rule="evenodd" clip-rule="evenodd" d="M10.15 10.8866L10.5656 10.4709C10.7348 10.3017 10.7348 10.0274 10.5656 9.85826C10.3965 9.68909 10.1222 9.68909 9.953 9.85826L9.20622 10.605C8.81147 10.9998 8.81147 11.6398 9.20621 12.0345L9.953 12.7813C10.1222 12.9505 10.3965 12.9505 10.5656 12.7813C10.7348 12.6121 10.7348 12.3379 10.5656 12.1687L10.15 11.753L12.809 11.753C13.0482 11.753 13.2422 11.559 13.2422 11.3198C13.2422 11.0805 13.0482 10.8866 12.809 10.8866L10.15 10.8866Z" fill="#1E1E1E" />
    </g>
    <defs>
        <clipPath id="clip0_19_1328">
            <rect width="13.8625" height="13.8625" fill="white" transform="translate(0.103516 0.345215)" />
        </clipPath>
    </defs>
</svg>
