<svg width="24" height="24" viewBox="0 0 14 15" fill="none" xmlns="http://www.w3.org/2000/svg">
    <path d="M10.4995 1.74414H3.56823C2.29222 1.74414 1.25781 2.77855 1.25781 4.05456V10.9858C1.25781 12.2618 2.29222 13.2962 3.56823 13.2962H10.4995C11.7755 13.2962 12.8099 12.2618 12.8099 10.9858V4.05456C12.8099 2.77855 11.7755 1.74414 10.4995 1.74414Z" fill="#AAFFB8" />
    <path fill-rule="evenodd" clip-rule="evenodd" d="M7.90569 3.65178C8.12805 3.5635 8.37989 3.67218 8.46818 3.89455L8.92734 5.051C8.99509 5.22163 8.94793 5.41643 8.80965 5.53718C8.67136 5.65792 8.47198 5.67839 8.31204 5.58827C7.9412 5.37929 7.50429 5.25775 7.03411 5.25775C5.64972 5.25775 4.5793 6.29828 4.5793 7.52004C4.5793 7.71906 4.60709 7.91154 4.65916 8.09471C4.72459 8.32484 4.59106 8.56443 4.36093 8.62986C4.13079 8.69528 3.8912 8.56175 3.82578 8.33162C3.7521 8.07245 3.71289 7.80028 3.71289 7.52004C3.71289 5.76444 5.22849 4.39135 7.03411 4.39135C7.28425 4.39135 7.52832 4.41745 7.76328 4.46704L7.66292 4.21427C7.57463 3.99191 7.68332 3.74007 7.90569 3.65178ZM9.7073 6.41022C9.93743 6.3448 10.177 6.47832 10.2425 6.70846C10.3161 6.96762 10.3553 7.2398 10.3553 7.52004C10.3553 9.27563 8.83974 10.6487 7.03411 10.6487C6.78398 10.6487 6.53991 10.6226 6.30494 10.573L6.4053 10.8258C6.4936 11.0482 6.38491 11.3 6.16254 11.3883C5.94018 11.4766 5.68834 11.3679 5.60005 11.1455L5.14087 9.98907C5.07312 9.81844 5.12028 9.62364 5.25857 9.50289C5.39686 9.38214 5.59624 9.36167 5.75618 9.4518C6.12702 9.66078 6.56393 9.78232 7.03411 9.78232C8.41851 9.78232 9.48893 8.7418 9.48893 7.52004C9.48893 7.32101 9.46114 7.12854 9.40907 6.94537C9.34364 6.71524 9.47717 6.47564 9.7073 6.41022Z" fill="#1E1E1E" />
</svg>
