<svg width="24" height="24" viewBox="0 0 14 15" fill="none" xmlns="http://www.w3.org/2000/svg">
    <path d="M10.5001 2.14893C11.7761 2.14893 12.8105 3.18333 12.8105 4.45934L12.8105 10.2354C12.8105 11.5114 11.7761 12.5458 10.5001 12.5458L3.56888 12.5458C2.29287 12.5458 1.25846 11.5114 1.25846 10.2354L1.25846 4.45934C1.25846 3.18333 2.29287 2.14893 3.56888 2.14893L10.5001 2.14893Z" fill="#F99D89" />
    <path fill-rule="evenodd" clip-rule="evenodd" d="M5.87891 6.04756C5.16115 6.04756 4.5793 6.62941 4.5793 7.34717C4.5793 8.06492 5.16115 8.64678 5.87891 8.64678C6.05839 8.64678 6.22911 8.61056 6.38441 8.54493C6.15644 8.20196 6.02331 7.78997 6.02331 7.34717C6.02331 6.90436 6.15644 6.49238 6.38441 6.14941C6.22911 6.08378 6.05839 6.04756 5.87891 6.04756ZM7.03411 5.51467C6.69976 5.30355 6.30333 5.18115 5.87891 5.18115C4.68265 5.18115 3.71289 6.15091 3.71289 7.34717C3.71289 8.54343 4.68265 9.51318 5.87891 9.51318C6.30333 9.51318 6.69976 9.39078 7.03411 9.17966C7.36847 9.39078 7.7649 9.51318 8.18932 9.51318C9.38558 9.51318 10.3553 8.54343 10.3553 7.34717C10.3553 6.15091 9.38558 5.18115 8.18932 5.18115C7.7649 5.18115 7.36847 5.30355 7.03411 5.51467ZM8.18932 6.04756C7.85619 6.04756 7.55324 6.17233 7.32302 6.37838C7.05645 6.61697 6.88971 6.96231 6.88971 7.34717C6.88971 7.73203 7.05645 8.07737 7.32302 8.31596C7.55324 8.522 7.85619 8.64678 8.18932 8.64678C8.90708 8.64678 9.48893 8.06492 9.48893 7.34717C9.48893 6.62941 8.90708 6.04756 8.18932 6.04756Z" fill="#1E1E1E" />
</svg>
