<svg width="24" height="24" viewBox="0 0 14 15" fill="none" xmlns="http://www.w3.org/2000/svg">
    <path d="M10.4995 1.91699H3.56823C2.29222 1.91699 1.25781 2.9514 1.25781 4.22741V11.1587C1.25781 12.2355 1.99444 13.1402 2.99126 13.3965C3.17569 13.4439 3.36901 13.4691 3.56823 13.4691H10.4995C10.6987 13.4691 10.892 13.4439 11.0764 13.3965C12.0733 13.1402 12.8099 12.2355 12.8099 11.1587V4.22741C12.8099 2.9514 11.7755 1.91699 10.4995 1.91699Z" fill="#FFDAE7" />
    <circle r="1.73281" transform="matrix(1 0 0 -1 7.03359 6.5377)" fill="#1E1E1E" />
    <path d="M3.5672 13.469H10.4984C10.6977 13.469 10.891 13.4438 11.0754 13.3964C11.0367 11.1969 9.24158 9.42578 7.03282 9.42578C4.82407 9.42578 3.02898 11.1969 2.99023 13.3964C3.17466 13.4438 3.36798 13.469 3.5672 13.469Z" fill="#1E1E1E" />
</svg>
